<svg width="254" height="254" viewBox="0 0 254 254" fill="none" xmlns="http://www.w3.org/2000/svg">
<g id="Group 2">
<g id="Ellipse 2" filter="url(#filter0_f_7_45)">
<circle cx="117" cy="76" r="37.5" stroke="white"/>
</g>
<g id="Group 1">
<g id="Ellipse 1" filter="url(#filter1_ddddd_7_45)">
<circle cx="117" cy="76" r="33" fill="white"/>
</g>
<path id="Vector" d="M107 88.4076C107.008 88.873 107.144 89.3274 107.394 89.7212C107.643 90.1151 107.997 90.4334 108.415 90.6416C108.833 90.8765 109.305 91 109.786 91C110.266 91 110.738 90.8765 111.156 90.6416L130.589 78.6894C131.011 78.4868 131.368 78.1697 131.618 77.7745C131.868 77.3793 132 76.922 132 76.4553C132 75.9886 131.868 75.5313 131.618 75.1361C131.368 74.7409 131.011 74.4238 130.589 74.2213L111.156 62.3584C110.738 62.1235 110.266 62 109.786 62C109.305 62 108.833 62.1235 108.415 62.3584C107.997 62.5666 107.643 62.8849 107.394 63.2788C107.144 63.6726 107.008 64.127 107 64.5924V88.4076Z" fill="url(#paint0_linear_7_45)"/>
</g>
</g>
<defs>
<filter id="filter0_f_7_45" x="69" y="28" width="96" height="96" filterUnits="userSpaceOnUse" color-interpolation-filters="sRGB">
<feFlood flood-opacity="0" result="BackgroundImageFix"/>
<feBlend mode="normal" in="SourceGraphic" in2="BackgroundImageFix" result="shape"/>
<feGaussianBlur stdDeviation="5" result="effect1_foregroundBlur_7_45"/>
</filter>
<filter id="filter1_ddddd_7_45" x="0" y="0" width="254" height="254" filterUnits="userSpaceOnUse" color-interpolation-filters="sRGB">
<feFlood flood-opacity="0" result="BackgroundImageFix"/>
<feColorMatrix in="SourceAlpha" type="matrix" values="0 0 0 0 0 0 0 0 0 0 0 0 0 0 0 0 0 0 127 0" result="hardAlpha"/>
<feOffset dy="3.30696"/>
<feGaussianBlur stdDeviation="1.65888"/>
<feColorMatrix type="matrix" values="0 0 0 0 0 0 0 0 0 0 0 0 0 0 0 0 0 0 0.0200187 0"/>
<feBlend mode="normal" in2="BackgroundImageFix" result="effect1_dropShadow_7_45"/>
<feColorMatrix in="SourceAlpha" type="matrix" values="0 0 0 0 0 0 0 0 0 0 0 0 0 0 0 0 0 0 127 0" result="hardAlpha"/>
<feOffset dy="6.99366"/>
<feGaussianBlur stdDeviation="4.10299"/>
<feColorMatrix type="matrix" values="0 0 0 0 0 0 0 0 0 0 0 0 0 0 0 0 0 0 0.0353466 0"/>
<feBlend mode="normal" in2="effect1_dropShadow_7_45" result="effect2_dropShadow_7_45"/>
<feColorMatrix in="SourceAlpha" type="matrix" values="0 0 0 0 0 0 0 0 0 0 0 0 0 0 0 0 0 0 127 0" result="hardAlpha"/>
<feOffset dy="11.8898"/>
<feGaussianBlur stdDeviation="8.22"/>
<feColorMatrix type="matrix" values="0 0 0 0 0 0 0 0 0 0 0 0 0 0 0 0 0 0 0.0506778 0"/>
<feBlend mode="normal" in2="effect2_dropShadow_7_45" result="effect3_dropShadow_7_45"/>
<feColorMatrix in="SourceAlpha" type="matrix" values="0 0 0 0 0 0 0 0 0 0 0 0 0 0 0 0 0 0 127 0" result="hardAlpha"/>
<feOffset dx="10" dy="20.718"/>
<feGaussianBlur stdDeviation="16.8097"/>
<feColorMatrix type="matrix" values="0 0 0 0 0 0 0 0 0 0 0 0 0 0 0 0 0 0 0.0697538 0"/>
<feBlend mode="normal" in2="effect3_dropShadow_7_45" result="effect4_dropShadow_7_45"/>
<feColorMatrix in="SourceAlpha" type="matrix" values="0 0 0 0 0 0 0 0 0 0 0 0 0 0 0 0 0 0 127 0" result="hardAlpha"/>
<feOffset dx="10" dy="51"/>
<feGaussianBlur stdDeviation="47"/>
<feColorMatrix type="matrix" values="0 0 0 0 0 0 0 0 0 0 0 0 0 0 0 0 0 0 0.11 0"/>
<feBlend mode="normal" in2="effect4_dropShadow_7_45" result="effect5_dropShadow_7_45"/>
<feBlend mode="normal" in="SourceGraphic" in2="effect5_dropShadow_7_45" result="shape"/>
</filter>
<linearGradient id="paint0_linear_7_45" x1="111.255" y1="96.9697" x2="153.95" y2="66.4612" gradientUnits="userSpaceOnUse">
<stop stop-color="#FF006E"/>
<stop offset="1" stop-color="#FFBE0B"/>
</linearGradient>
</defs>
</svg>
