<svg width="38" height="35" viewBox="0 0 38 35" fill="none" xmlns="http://www.w3.org/2000/svg">
<g id="Icon User Community">
<path id="Vector" d="M13.6251 13.6252C16.8354 13.6252 19.4377 11.0228 19.4377 7.81259C19.4377 4.60238 16.8354 2 13.6251 2C10.4149 2 7.81256 4.60238 7.81256 7.81259C7.81256 11.0228 10.4149 13.6252 13.6251 13.6252Z" stroke="url(#paint0_linear_49_161)" stroke-width="3" stroke-linecap="round" stroke-linejoin="round"/>
<path id="Vector_2" d="M25.2504 33.0005H2V30.4172C2 27.334 3.22479 24.3771 5.40494 22.1969C7.58508 20.0168 10.542 18.792 13.6252 18.792C16.7084 18.792 19.6653 20.0168 21.8454 22.1969C24.0256 24.3771 25.2504 27.334 25.2504 30.4172V33.0005Z" stroke="url(#paint1_linear_49_161)" stroke-width="3" stroke-linecap="round" stroke-linejoin="round"/>
<path id="Vector_3" d="M23.9586 2C25.5002 2 26.9787 2.6124 28.0687 3.70247C29.1588 4.79254 29.7712 6.27099 29.7712 7.81259C29.7712 9.35418 29.1588 10.8326 28.0687 11.9227C26.9787 13.0128 25.5002 13.6252 23.9586 13.6252" stroke="url(#paint2_linear_49_161)" stroke-width="3" stroke-linecap="round" stroke-linejoin="round"/>
<path id="Vector_4" d="M28.092 19.2832C30.2926 20.1203 32.1872 21.6059 33.525 23.5434C34.8628 25.4809 35.5807 27.7789 35.5838 30.1334V33.0009H31.7088" stroke="url(#paint3_linear_49_161)" stroke-width="3" stroke-linecap="round" stroke-linejoin="round"/>
</g>
<defs>
<linearGradient id="paint0_linear_49_161" x1="9.79135" y1="16.0182" x2="27.5678" y2="1.28306" gradientUnits="userSpaceOnUse">
<stop stop-color="#FF006E"/>
<stop offset="1" stop-color="#FFBE0B"/>
</linearGradient>
<linearGradient id="paint1_linear_49_161" x1="5.95758" y1="35.9254" x2="27.079" y2="7.27617" gradientUnits="userSpaceOnUse">
<stop stop-color="#FF006E"/>
<stop offset="1" stop-color="#FFBE0B"/>
</linearGradient>
<linearGradient id="paint2_linear_49_161" x1="24.948" y1="16.0182" x2="37.7451" y2="10.7144" gradientUnits="userSpaceOnUse">
<stop stop-color="#FF006E"/>
<stop offset="1" stop-color="#FFBE0B"/>
</linearGradient>
<linearGradient id="paint3_linear_49_161" x1="29.3673" y1="35.8247" x2="45.4073" y2="28.5633" gradientUnits="userSpaceOnUse">
<stop stop-color="#FF006E"/>
<stop offset="1" stop-color="#FFBE0B"/>
</linearGradient>
</defs>
</svg>
