<svg width="36" height="36" viewBox="0 0 36 36" fill="none" xmlns="http://www.w3.org/2000/svg">
<g id="Icon User">
<path id="Vector" d="M18 20.6154C21.6111 20.6154 24.5385 17.688 24.5385 14.0769C24.5385 10.4658 21.6111 7.53845 18 7.53845C14.3889 7.53845 11.4615 10.4658 11.4615 14.0769C11.4615 17.688 14.3889 20.6154 18 20.6154Z" stroke="url(#paint0_linear_49_172)" stroke-width="1.5" stroke-linecap="round" stroke-linejoin="round"/>
<path id="Vector_2" d="M6.8324 30.8154C7.99949 28.8997 9.63977 27.3164 11.5956 26.2178C13.5513 25.1191 15.7569 24.5421 18.0001 24.5421C20.2433 24.5421 22.4488 25.1191 24.4046 26.2178C26.3604 27.3164 28.0007 28.8997 29.1678 30.8154" stroke="url(#paint1_linear_49_172)" stroke-width="1.5" stroke-linecap="round" stroke-linejoin="round"/>
<path id="Vector_3" d="M18 35C27.3888 35 35 27.3888 35 18C35 8.61116 27.3888 1 18 1C8.61116 1 1 8.61116 1 18C1 27.3888 8.61116 35 18 35Z" stroke="url(#paint2_linear_49_172)" stroke-width="1.5" stroke-linecap="round" stroke-linejoin="round"/>
</g>
<defs>
<linearGradient id="paint0_linear_49_172" x1="13.6874" y1="23.3073" x2="33.6839" y2="6.73198" gradientUnits="userSpaceOnUse">
<stop stop-color="#FF006E"/>
<stop offset="1" stop-color="#FFBE0B"/>
</linearGradient>
<linearGradient id="paint1_linear_49_172" x1="10.6342" y1="32.1068" x2="16.5686" y2="14.5932" gradientUnits="userSpaceOnUse">
<stop stop-color="#FF006E"/>
<stop offset="1" stop-color="#FFBE0B"/>
</linearGradient>
<linearGradient id="paint2_linear_49_172" x1="6.78734" y1="41.999" x2="58.778" y2="-1.09683" gradientUnits="userSpaceOnUse">
<stop stop-color="#FF006E"/>
<stop offset="1" stop-color="#FFBE0B"/>
</linearGradient>
</defs>
</svg>
